<?xml version="1.0" encoding="UTF-8" standalone="no"?>
<svg width="42px" height="52px" viewBox="0 0 42 52" version="1.1" xmlns="http://www.w3.org/2000/svg" xmlns:xlink="http://www.w3.org/1999/xlink" xmlns:sketch="http://www.bohemiancoding.com/sketch/ns">
    <!-- Generator: Sketch 3.0.2 (7799) - http://www.bohemiancoding.com/sketch -->
    <title>page</title>
    <description>Created with Sketch.</description>
    <defs></defs>
    <g id="Page-1" stroke="none" stroke-width="1" fill="none" fill-rule="evenodd" sketch:type="MSPage">
        <rect id="Rectangle-3" opacity="0.389750466" fill="#000000" sketch:type="MSShapeGroup" x="10" y="10" width="7" height="2"></rect>
        <rect id="Rectangle-4" opacity="0.389750466" fill="#000000" sketch:type="MSShapeGroup" x="18" y="10" width="8" height="2"></rect>
        <rect id="Rectangle-5" opacity="0.389750466" fill="#000000" sketch:type="MSShapeGroup" x="27" y="10" width="4" height="2"></rect>
        <rect id="Rectangle-8" opacity="0.389750466" fill="#000000" sketch:type="MSShapeGroup" x="10" y="15" width="13" height="2"></rect>
        <rect id="Rectangle-6" opacity="0.389750466" fill="#000000" sketch:type="MSShapeGroup" x="24" y="15" width="7" height="2"></rect>
        <rect id="Rectangle-9" opacity="0.389750466" fill="#000000" sketch:type="MSShapeGroup" x="10" y="20" width="5" height="2"></rect>
        <rect id="Rectangle-7" opacity="0.389750466" fill="#000000" sketch:type="MSShapeGroup" x="26" y="20" width="5" height="2"></rect>
        <rect id="Rectangle-10" opacity="0.389750466" fill="#000000" sketch:type="MSShapeGroup" x="17" y="20" width="7" height="2"></rect>
        <rect id="Rectangle-18" opacity="0.389750466" fill="#000000" sketch:type="MSShapeGroup" x="10" y="25" width="7" height="2"></rect>
        <rect id="Rectangle-17" opacity="0.389750466" fill="#000000" sketch:type="MSShapeGroup" x="18" y="25" width="8" height="2"></rect>
        <rect id="Rectangle-16" opacity="0.389750466" fill="#000000" sketch:type="MSShapeGroup" x="27" y="25" width="4" height="2"></rect>
        <rect id="Rectangle-15" opacity="0.389750466" fill="#000000" sketch:type="MSShapeGroup" x="10" y="30" width="13" height="2"></rect>
        <rect id="Rectangle-14" opacity="0.389750466" fill="#000000" sketch:type="MSShapeGroup" x="24" y="30" width="7" height="2"></rect>
        <rect id="Rectangle-13" opacity="0.389750466" fill="#000000" sketch:type="MSShapeGroup" x="10" y="35" width="5" height="2"></rect>
        <rect id="Rectangle-12" opacity="0.389750466" fill="#000000" sketch:type="MSShapeGroup" x="26" y="35" width="5" height="2"></rect>
        <rect id="Rectangle-11" opacity="0.389750466" fill="#000000" sketch:type="MSShapeGroup" x="17" y="35" width="7" height="2"></rect>
        <path d="M4,10.0082804 L4,36.9917196 C4,40.3100012 6.68653665,43 9.99518319,43 L31.0048168,43 C34.3158651,43 37,40.3193721 37,36.9917196 L37,10.0082804 C37,6.68999875 34.3134634,4 31.0048168,4 L9.99518319,4 C6.68413494,4 4,6.68062794 4,10.0082804 Z M31.0048168,6.5 C32.9325134,6.5 34.5,8.07047638 34.5,10.0082804 L34.5,36.9917196 C34.5,38.9360414 32.9377676,40.5 31.0048168,40.5 L9.99518319,40.5 C8.0674866,40.5 6.5,38.9295236 6.5,36.9917196 L6.5,10.0082804 C6.5,8.06395857 8.06223239,6.5 9.99518319,6.5 L31.0048168,6.5 Z" id="Rectangle-2" fill="#000000" sketch:type="MSShapeGroup"></path>
    </g>
</svg>