<?xml version="1.0" encoding="UTF-8" standalone="no"?>
<svg width="42px" height="52px" viewBox="0 0 42 52" version="1.1" xmlns="http://www.w3.org/2000/svg" xmlns:xlink="http://www.w3.org/1999/xlink" xmlns:sketch="http://www.bohemiancoding.com/sketch/ns">
    <!-- Generator: Sketch 3.0.2 (7799) - http://www.bohemiancoding.com/sketch -->
    <title>book-closed</title>
    <description>Created with Sketch.</description>
    <defs></defs>
    <g id="Page-1" stroke="none" stroke-width="1" fill="none" fill-rule="evenodd" sketch:type="MSPage">
        <path d="M2,24 L2,9.5 C2,4.25 5.899,2 9,2 L36,2 C38.209,2 40,3.791 40,6 L40,36 C40,38.209 38.209,40 36,40 L32.9938882,42.2773574 C32.9015951,44.356989 31.7679693,46 29.861,46 L5.522,46 C3.531,46 2,44.209 2,42 L2,24 Z M6.1291443,8 C6.2735152,6.46650127 6.99375335,5 10.047,5 L33.33,5 C35.234,5 37,7.011 37,8.895 L37,34.479 C37,36.363 36.1,38.018 34.195,38.018 L33,38.8597797 L33,12 C33,9.791 31.852,8 29.861,8 L6.1291443,8 Z" id="Fill-1" fill="#000000" sketch:type="MSShapeGroup"></path>
    </g>
</svg>